<?xml version="1.0" encoding="utf-8"?>
<!-- Generator: Adobe Illustrator 17.1.0, SVG Export Plug-In . SVG Version: 6.00 Build 0)  -->
<!DOCTYPE svg PUBLIC "-//W3C//DTD SVG 1.1//EN" "http://www.w3.org/Graphics/SVG/1.1/DTD/svg11.dtd">
<svg version="1.1" id="Layer_1" xmlns="http://www.w3.org/2000/svg" xmlns:xlink="http://www.w3.org/1999/xlink" x="0px" y="0px"
	 viewBox="0 0 792 612" enable-background="new 0 0 792 612" xml:space="preserve">
<g>
	<defs>
		<rect id="SVGID_1_" width="792" height="612"/>
	</defs>
	<clipPath id="SVGID_2_">
		<use xlink:href="#SVGID_1_"  overflow="visible"/>
	</clipPath>
	<rect clip-path="url(#SVGID_2_)" fill="#FFFFFF" width="792" height="612"/>
</g>
<g>
	<defs>
		<rect id="SVGID_3_" width="720" height="540"/>
	</defs>
	<clipPath id="SVGID_4_">
		<use xlink:href="#SVGID_3_"  overflow="visible"/>
	</clipPath>
	<rect x="72" y="72" clip-path="url(#SVGID_4_)" fill="#FFFFFF" width="648" height="468"/>
</g>
<g>
	<defs>
		<rect id="SVGID_5_" x="72" y="72" width="583.3" height="413.3"/>
	</defs>
	<clipPath id="SVGID_6_">
		<use xlink:href="#SVGID_5_"  overflow="visible"/>
	</clipPath>
	<line clip-path="url(#SVGID_6_)" fill="none" stroke="#B8B8B8" stroke-width="0.25" x1="121" y1="417.5" x2="646" y2="417.5"/>
	<line clip-path="url(#SVGID_6_)" fill="none" stroke="#B8B8B8" stroke-width="0.25" x1="121" y1="384.5" x2="646" y2="384.5"/>
	<line clip-path="url(#SVGID_6_)" fill="none" stroke="#B8B8B8" stroke-width="0.25" x1="121" y1="350.5" x2="646" y2="350.5"/>
	<line clip-path="url(#SVGID_6_)" fill="none" stroke="#B8B8B8" stroke-width="0.25" x1="121" y1="317.5" x2="646" y2="317.5"/>
	<line clip-path="url(#SVGID_6_)" fill="none" stroke="#B8B8B8" stroke-width="0.25" x1="121" y1="284.5" x2="646" y2="284.5"/>
	<line clip-path="url(#SVGID_6_)" fill="none" stroke="#B8B8B8" stroke-width="0.25" x1="121" y1="251.5" x2="646" y2="251.5"/>
	<line clip-path="url(#SVGID_6_)" fill="none" stroke="#B8B8B8" stroke-width="0.25" x1="121" y1="217.5" x2="646" y2="217.5"/>
	<line clip-path="url(#SVGID_6_)" fill="none" stroke="#B8B8B8" stroke-width="0.25" x1="121" y1="184.5" x2="646" y2="184.5"/>
	<line clip-path="url(#SVGID_6_)" fill="none" stroke="#B8B8B8" stroke-width="0.25" x1="121" y1="151.5" x2="646" y2="151.5"/>
	<line clip-path="url(#SVGID_6_)" fill="none" stroke="#B8B8B8" stroke-width="0.25" x1="121" y1="118.5" x2="646" y2="118.5"/>
</g>
<g>
	<defs>
		<rect id="SVGID_7_" x="72" y="118.2" width="19" height="332.6"/>
	</defs>
	<clipPath id="SVGID_8_">
		<use xlink:href="#SVGID_7_"  overflow="visible"/>
	</clipPath>
	<g clip-path="url(#SVGID_8_)">
		<defs>
			<rect id="SVGID_9_" x="72" y="72" width="583.3" height="413.3"/>
		</defs>
		<clipPath id="SVGID_10_">
			<use xlink:href="#SVGID_9_"  overflow="visible"/>
		</clipPath>
		<g clip-path="url(#SVGID_10_)">
			<text transform="matrix(-1.224647e-16 -1 1 -1.224647e-16 82.4702 309.7451)" font-family="'Helvetica'" font-size="11">Cost</text>
		</g>
	</g>
</g>
<g>
	<defs>
		<rect id="SVGID_11_" x="98.3" y="443.8" width="14.1" height="14"/>
	</defs>
	<clipPath id="SVGID_12_">
		<use xlink:href="#SVGID_11_"  overflow="visible"/>
	</clipPath>
	<g clip-path="url(#SVGID_12_)">
		<text transform="matrix(1 0 0 1 99.8398 454.4635)" font-family="'Helvetica'" font-size="10">15</text>
	</g>
</g>
<g>
	<defs>
		<rect id="SVGID_13_" x="90" y="410.5" width="22.5" height="14"/>
	</defs>
	<clipPath id="SVGID_14_">
		<use xlink:href="#SVGID_13_"  overflow="visible"/>
	</clipPath>
	<g clip-path="url(#SVGID_14_)">
		<text transform="matrix(1 0 0 1 91.5 421.2041)" font-family="'Helvetica'" font-size="10">17.3</text>
	</g>
</g>
<g>
	<defs>
		<rect id="SVGID_15_" x="90" y="377.2" width="22.5" height="14"/>
	</defs>
	<clipPath id="SVGID_16_">
		<use xlink:href="#SVGID_15_"  overflow="visible"/>
	</clipPath>
	<g clip-path="url(#SVGID_16_)">
		<text transform="matrix(1 0 0 1 91.5 387.9447)" font-family="'Helvetica'" font-size="10">19.6</text>
	</g>
</g>
<g>
	<defs>
		<rect id="SVGID_17_" x="90" y="344" width="22.5" height="14"/>
	</defs>
	<clipPath id="SVGID_18_">
		<use xlink:href="#SVGID_17_"  overflow="visible"/>
	</clipPath>
	<g clip-path="url(#SVGID_18_)">
		<text transform="matrix(1 0 0 1 91.5 354.6853)" font-family="'Helvetica'" font-size="10">21.9</text>
	</g>
</g>
<g>
	<defs>
		<rect id="SVGID_19_" x="90" y="310.7" width="22.5" height="14"/>
	</defs>
	<clipPath id="SVGID_20_">
		<use xlink:href="#SVGID_19_"  overflow="visible"/>
	</clipPath>
	<g clip-path="url(#SVGID_20_)">
		<text transform="matrix(1 0 0 1 91.5 321.426)" font-family="'Helvetica'" font-size="10">24.2</text>
	</g>
</g>
<g>
	<defs>
		<rect id="SVGID_21_" x="90" y="277.5" width="22.5" height="14"/>
	</defs>
	<clipPath id="SVGID_22_">
		<use xlink:href="#SVGID_21_"  overflow="visible"/>
	</clipPath>
	<g clip-path="url(#SVGID_22_)">
		<text transform="matrix(1 0 0 1 91.5 288.1666)" font-family="'Helvetica'" font-size="10">26.5</text>
	</g>
</g>
<g>
	<defs>
		<rect id="SVGID_23_" x="90" y="244.2" width="22.5" height="14"/>
	</defs>
	<clipPath id="SVGID_24_">
		<use xlink:href="#SVGID_23_"  overflow="visible"/>
	</clipPath>
	<g clip-path="url(#SVGID_24_)">
		<text transform="matrix(1 0 0 1 91.5 254.9072)" font-family="'Helvetica'" font-size="10">28.8</text>
	</g>
</g>
<g>
	<defs>
		<rect id="SVGID_25_" x="90" y="210.9" width="22.5" height="14"/>
	</defs>
	<clipPath id="SVGID_26_">
		<use xlink:href="#SVGID_25_"  overflow="visible"/>
	</clipPath>
	<g clip-path="url(#SVGID_26_)">
		<text transform="matrix(1 0 0 1 91.5 221.6478)" font-family="'Helvetica'" font-size="10">31.1</text>
	</g>
</g>
<g>
	<defs>
		<rect id="SVGID_27_" x="90" y="177.7" width="22.5" height="14"/>
	</defs>
	<clipPath id="SVGID_28_">
		<use xlink:href="#SVGID_27_"  overflow="visible"/>
	</clipPath>
	<g clip-path="url(#SVGID_28_)">
		<text transform="matrix(1 0 0 1 91.5 188.3884)" font-family="'Helvetica'" font-size="10">33.4</text>
	</g>
</g>
<g>
	<defs>
		<rect id="SVGID_29_" x="90" y="144.4" width="22.5" height="14"/>
	</defs>
	<clipPath id="SVGID_30_">
		<use xlink:href="#SVGID_29_"  overflow="visible"/>
	</clipPath>
	<g clip-path="url(#SVGID_30_)">
		<text transform="matrix(1 0 0 1 91.5 155.1291)" font-family="'Helvetica'" font-size="10">35.7</text>
	</g>
</g>
<g>
	<defs>
		<rect id="SVGID_31_" x="98.3" y="111.2" width="14.1" height="14"/>
	</defs>
	<clipPath id="SVGID_32_">
		<use xlink:href="#SVGID_31_"  overflow="visible"/>
	</clipPath>
	<g clip-path="url(#SVGID_32_)">
		<text transform="matrix(1 0 0 1 99.8398 121.8697)" font-family="'Helvetica'" font-size="10">38</text>
	</g>
</g>
<g>
	<defs>
		<rect id="SVGID_33_" x="72" y="72" width="583.3" height="413.3"/>
	</defs>
	<clipPath id="SVGID_34_">
		<use xlink:href="#SVGID_33_"  overflow="visible"/>
	</clipPath>
	
		<line clip-path="url(#SVGID_34_)" fill="none" stroke="#000000" stroke-linecap="square" x1="121.5" y1="450.5" x2="646.5" y2="450.5"/>
</g>
<g>
	<defs>
		<rect id="SVGID_35_" x="121.5" y="466.3" width="525" height="19"/>
	</defs>
	<clipPath id="SVGID_36_">
		<use xlink:href="#SVGID_35_"  overflow="visible"/>
	</clipPath>
	<g clip-path="url(#SVGID_36_)">
		<text transform="matrix(1 0 0 1 358.9122 482.7335)"><tspan x="0" y="0" font-family="'Helvetica'" font-size="11">CPU</tspan><tspan x="23.2" y="0" font-family="'Helvetica'" font-size="11"> </tspan><tspan x="26.1" y="0" font-family="'Helvetica'" font-size="11">T</tspan><tspan x="32.4" y="0" font-family="'Helvetica'" font-size="11">ime</tspan></text>
	</g>
</g>
<g>
	<defs>
		<rect id="SVGID_37_" x="117.2" y="453.3" width="8.6" height="14"/>
	</defs>
	<clipPath id="SVGID_38_">
		<use xlink:href="#SVGID_37_"  overflow="visible"/>
	</clipPath>
	<g clip-path="url(#SVGID_38_)">
		<text transform="matrix(1 0 0 1 118.6821 463.9635)" font-family="'Helvetica'" font-size="10">0</text>
	</g>
</g>
<g>
	<defs>
		<rect id="SVGID_39_" x="166.9" y="453.3" width="14.1" height="14"/>
	</defs>
	<clipPath id="SVGID_40_">
		<use xlink:href="#SVGID_39_"  overflow="visible"/>
	</clipPath>
	<g clip-path="url(#SVGID_40_)">
		<text transform="matrix(1 0 0 1 168.4041 463.9635)" font-family="'Helvetica'" font-size="10">20</text>
	</g>
</g>
<g>
	<defs>
		<rect id="SVGID_41_" x="219.4" y="453.3" width="14.1" height="14"/>
	</defs>
	<clipPath id="SVGID_42_">
		<use xlink:href="#SVGID_41_"  overflow="visible"/>
	</clipPath>
	<g clip-path="url(#SVGID_42_)">
		<text transform="matrix(1 0 0 1 220.9068 463.9635)" font-family="'Helvetica'" font-size="10">40</text>
	</g>
</g>
<g>
	<defs>
		<rect id="SVGID_43_" x="271.9" y="453.3" width="14.1" height="14"/>
	</defs>
	<clipPath id="SVGID_44_">
		<use xlink:href="#SVGID_43_"  overflow="visible"/>
	</clipPath>
	<g clip-path="url(#SVGID_44_)">
		<text transform="matrix(1 0 0 1 273.4095 463.9635)" font-family="'Helvetica'" font-size="10">60</text>
	</g>
</g>
<g>
	<defs>
		<rect id="SVGID_45_" x="324.4" y="453.3" width="14.1" height="14"/>
	</defs>
	<clipPath id="SVGID_46_">
		<use xlink:href="#SVGID_45_"  overflow="visible"/>
	</clipPath>
	<g clip-path="url(#SVGID_46_)">
		<text transform="matrix(1 0 0 1 325.9122 463.9635)" font-family="'Helvetica'" font-size="10">80</text>
	</g>
</g>
<g>
	<defs>
		<rect id="SVGID_47_" x="374.1" y="453.3" width="19.7" height="14"/>
	</defs>
	<clipPath id="SVGID_48_">
		<use xlink:href="#SVGID_47_"  overflow="visible"/>
	</clipPath>
	<g clip-path="url(#SVGID_48_)">
		<text transform="matrix(1 0 0 1 375.6341 463.9635)" font-family="'Helvetica'" font-size="10">100</text>
	</g>
</g>
<g>
	<defs>
		<rect id="SVGID_49_" x="426.6" y="453.3" width="19.7" height="14"/>
	</defs>
	<clipPath id="SVGID_50_">
		<use xlink:href="#SVGID_49_"  overflow="visible"/>
	</clipPath>
	<g clip-path="url(#SVGID_50_)">
		<text transform="matrix(1 0 0 1 428.1368 463.9635)" font-family="'Helvetica'" font-size="10">120</text>
	</g>
</g>
<g>
	<defs>
		<rect id="SVGID_51_" x="479.1" y="453.3" width="19.7" height="14"/>
	</defs>
	<clipPath id="SVGID_52_">
		<use xlink:href="#SVGID_51_"  overflow="visible"/>
	</clipPath>
	<g clip-path="url(#SVGID_52_)">
		<text transform="matrix(1 0 0 1 480.6395 463.9635)" font-family="'Helvetica'" font-size="10">140</text>
	</g>
</g>
<g>
	<defs>
		<rect id="SVGID_53_" x="531.6" y="453.3" width="19.7" height="14"/>
	</defs>
	<clipPath id="SVGID_54_">
		<use xlink:href="#SVGID_53_"  overflow="visible"/>
	</clipPath>
	<g clip-path="url(#SVGID_54_)">
		<text transform="matrix(1 0 0 1 533.1422 463.9635)" font-family="'Helvetica'" font-size="10">160</text>
	</g>
</g>
<g>
	<defs>
		<rect id="SVGID_55_" x="584.1" y="453.3" width="19.7" height="14"/>
	</defs>
	<clipPath id="SVGID_56_">
		<use xlink:href="#SVGID_55_"  overflow="visible"/>
	</clipPath>
	<g clip-path="url(#SVGID_56_)">
		<text transform="matrix(1 0 0 1 585.6449 463.9635)" font-family="'Helvetica'" font-size="10">180</text>
	</g>
</g>
<g>
	<defs>
		<rect id="SVGID_57_" x="636.6" y="453.3" width="18.7" height="14"/>
	</defs>
	<clipPath id="SVGID_58_">
		<use xlink:href="#SVGID_57_"  overflow="visible"/>
	</clipPath>
	<g clip-path="url(#SVGID_58_)">
		<text transform="matrix(1 0 0 1 638.1476 463.9635)" font-family="'Helvetica'" font-size="10">200</text>
	</g>
</g>
<g>
	<defs>
		<rect id="SVGID_59_" x="72" y="72" width="583.3" height="413.3"/>
	</defs>
	<clipPath id="SVGID_60_">
		<use xlink:href="#SVGID_59_"  overflow="visible"/>
	</clipPath>
	<g clip-path="url(#SVGID_60_)" enable-background="new    ">
		<g>
			<defs>
				<rect id="SVGID_61_" x="122" y="256" width="526" height="35"/>
			</defs>
			<clipPath id="SVGID_62_">
				<use xlink:href="#SVGID_61_"  overflow="visible"/>
			</clipPath>
			<g clip-path="url(#SVGID_62_)">
				<defs>
					<rect id="SVGID_63_" x="122.4" y="256.9" width="524.7" height="33.1"/>
				</defs>
				<clipPath id="SVGID_64_">
					<use xlink:href="#SVGID_63_"  overflow="visible"/>
				</clipPath>
				<polyline clip-path="url(#SVGID_64_)" fill="none" stroke="#FB4912" points="123,257.5 124,257.5 124.9,257.5 125.8,259.5 
					126.7,259.5 127.7,259.5 128.6,259.5 129.6,267.9 130.6,267.9 131.8,267.9 132.9,267.9 134,267.9 135.1,267.9 136.2,267.9 
					137.3,267.9 138.5,267.9 139.7,267.9 140.9,267.9 142.1,267.9 143.4,267.9 144.6,267.9 145.9,267.9 147.4,267.9 148.6,267.9 
					149.7,267.9 150.9,267.9 152.1,272.5 153.4,272.5 154.6,272.5 155.8,272.5 157,272.5 158.1,273 159.2,273 160.3,273 161.5,273 
					162.7,273 163.8,273 164.9,273 166.1,273 167.2,273 168.5,273 169.7,273 170.8,273 171.9,273 172.9,273 174,273 175.3,273 
					176.4,273 177.6,273 178.8,273 179.9,273 181.1,273 182.3,273 183.4,273 184.6,273 185.7,273 186.8,273 187.9,273 189,280.6 
					190.1,280.6 191.1,280.6 192.3,280.6 193.4,280.6 194.5,280.6 195.6,280.6 196.9,280.6 198,280.6 199.1,280.6 200.2,280.6 
					201.3,280.6 202.4,280.6 203.5,280.6 204.6,280.6 205.9,280.6 207.1,280.6 208.1,280.6 209.3,280.6 210.5,280.6 211.6,280.6 
					212.7,280.6 213.7,280.6 214.8,280.6 215.9,280.6 217,280.6 218.2,280.6 219.3,280.6 220.5,280.6 221.6,280.6 222.7,280.6 
					224.1,280.6 225.1,280.6 226.3,280.6 227.4,280.6 228.5,280.6 229.7,280.6 230.8,280.6 232,280.6 233.2,280.6 234.4,280.6 
					235.6,280.6 236.8,280.6 237.9,280.6 239.1,280.6 240.2,280.6 241.3,280.6 242.6,280.6 243.7,280.6 244.9,280.6 246.1,280.6 
					247.2,280.6 248.3,280.6 249.4,280.6 250.5,280.6 251.6,280.6 252.7,280.6 253.8,280.6 254.9,280.6 255.9,280.6 257,280.6 
					258.1,280.6 259.2,280.6 260.6,280.6 261.7,280.6 262.8,280.6 263.9,280.6 265,280.6 266.1,280.6 267.2,280.6 268.3,280.6 
					269.5,280.6 270.6,280.6 271.8,280.6 273,280.6 274.1,280.6 275.2,280.6 276.5,280.6 277.7,280.6 279.1,280.6 280.1,280.6 
					281.3,285.7 282.4,285.7 283.5,285.7 284.7,285.7 285.8,285.7 287,285.7 288.1,285.7 289.2,285.7 290.2,285.7 291.2,285.7 
					292.4,285.7 293.4,285.7 294.6,285.7 295.6,285.7 296.6,285.7 297.9,285.7 299.1,285.7 300.1,285.7 301.2,285.7 302.3,285.7 
					303.4,285.7 304.5,285.7 305.6,285.7 306.7,285.7 307.8,285.7 309,285.7 310.1,285.7 311.3,285.7 312.4,285.7 313.6,285.7 
					314.9,285.7 316.4,285.7 317.6,285.7 318.7,285.7 319.8,285.7 321,285.7 322.1,285.7 323.1,285.7 324.2,285.7 325.3,285.7 
					326.4,285.7 327.5,285.7 328.7,285.7 329.7,285.7 330.8,285.7 332,285.7 333.2,285.7 334.4,285.7 335.5,285.7 336.7,285.7 
					337.9,285.7 339.1,285.7 340.3,285.7 341.4,285.7 342.6,285.7 343.8,285.7 345,285.7 346.1,285.7 347.3,285.7 348.3,285.7 
					349.4,285.7 350.5,285.7 351.6,285.7 352.9,285.7 354,285.7 355,285.7 356.1,285.7 357.3,285.7 358.4,285.7 359.5,285.7 
					360.7,285.7 361.8,285.7 363,285.7 364.1,285.7 365.3,285.7 366.4,285.7 367.5,285.7 368.8,285.7 370,285.7 371.3,285.7 
					372.4,285.7 373.5,285.7 374.6,285.7 375.8,285.7 376.9,285.7 378.1,285.7 379.3,285.7 380.5,285.7 381.7,285.7 382.9,285.7 
					384,285.7 385.2,285.7 386.4,285.7 387.6,285.7 388.8,285.7 390.2,285.7 391.4,285.7 392.5,285.7 393.6,285.7 394.8,285.7 
					395.9,285.7 397,285.7 398.1,285.7 399.2,285.7 400.3,285.7 401.3,285.7 402.3,285.7 403.4,285.7 404.6,285.7 405.6,285.7 
					406.7,285.7 407.9,285.7 409,285.7 410.1,285.7 411.3,285.7 412.4,285.7 413.6,285.7 414.7,285.7 415.8,285.7 416.9,285.7 
					417.9,285.7 419.1,285.7 420.1,285.7 421.1,285.7 422.3,285.7 423.3,285.7 424.3,285.7 425.5,285.7 426.7,285.7 427.8,285.7 
					428.9,285.7 430,285.7 431.3,285.7 432.6,285.7 433.6,285.7 434.7,285.7 435.8,285.7 437,285.7 438.1,285.7 439.2,285.7 
					440.3,285.7 441.4,285.7 442.5,285.7 443.9,285.7 445,285.7 446.1,285.7 447.2,285.7 448.3,285.7 449.4,285.7 450.5,285.7 
					451.7,285.7 452.7,285.7 453.8,285.7 454.9,285.7 456.1,285.7 457.2,285.7 458.4,285.7 459.6,285.7 460.8,285.7 462.2,285.7 
					463.3,285.7 464.4,285.7 465.6,285.7 466.7,285.7 467.9,285.7 469,285.7 470.1,285.7 471.3,285.7 472.4,285.7 473.6,285.7 
					474.6,285.7 475.8,285.7 476.9,285.7 478,285.7 479.2,285.7 480.6,285.7 481.7,285.7 482.8,285.7 484,285.7 485.1,285.7 
					486.2,285.7 487.2,285.7 488.3,285.7 489.3,285.7 490.5,285.7 491.6,285.7 492.8,285.7 493.9,285.7 495.1,285.7 496.2,285.7 
					497.3,285.7 498.7,285.7 499.8,285.7 501,285.7 502.1,285.7 503.1,285.7 504.2,285.7 505.3,285.7 506.4,285.7 507.6,285.7 
					508.6,285.7 509.8,285.7 510.9,285.7 512,285.7 513.2,285.7 514.3,285.7 515.5,285.7 516.8,285.7 518,285.7 519.1,285.7 
					520.2,285.7 521.4,285.7 522.5,285.7 523.5,285.7 524.6,285.7 525.7,285.7 526.8,285.7 527.9,285.7 529.3,285.7 530.6,285.7 
					531.9,285.7 533.2,285.7 534.4,285.7 535.9,285.7 537.1,285.7 538.3,285.7 539.4,285.7 540.7,285.7 541.9,285.7 543,285.7 
					544.1,285.7 545.2,285.7 546.3,285.7 547.5,285.7 548.6,285.7 549.7,285.7 550.8,285.7 551.9,285.7 553,285.7 554.3,285.7 
					555.5,285.7 556.6,285.7 557.8,285.7 558.9,285.7 560.1,285.7 561.2,285.7 562.4,285.7 563.5,285.7 564.6,285.7 565.9,285.7 
					567,285.7 568.5,285.7 569.8,285.7 571,285.7 572.2,285.7 573.6,285.7 574.7,285.7 575.9,285.7 577,285.7 578.1,285.7 
					579.2,285.7 580.4,285.7 581.5,285.7 582.5,285.7 583.6,285.7 584.7,285.7 585.8,285.7 587,285.7 588.2,285.7 589.3,285.7 
					590.3,285.7 591.6,285.7 592.7,285.7 593.8,285.7 594.9,285.7 596,285.7 597.1,285.7 598.2,285.7 599.3,285.7 600.4,285.7 
					601.5,285.7 602.7,285.7 603.8,285.7 605,285.7 606.1,285.7 607.2,285.7 608.4,285.7 609.7,285.7 610.8,285.7 611.9,285.7 
					612.9,285.7 614,285.7 615.1,285.7 616.2,285.7 617.3,285.7 618.4,285.7 619.5,285.7 620.6,285.7 621.7,285.7 622.9,285.7 
					624,285.7 625.1,285.7 626.3,285.7 627.6,285.7 628.7,285.7 629.9,285.7 630.9,285.7 632,285.7 633.1,285.7 634.3,285.7 
					635.4,285.7 636.5,285.7 637.7,285.7 638.8,285.7 639.9,285.7 641.1,285.7 642.2,285.7 643.4,285.7 644.6,285.7 646.1,285.7 
					647.3,285.7 648.4,285.7 649.5,285.7 650.8,285.7 652.1,285.7 653.3,285.7 654.5,285.7 655.7,285.7 657,285.7 658.2,285.7 
					659.4,285.7 660.6,285.7 661.8,285.7 663,285.7 664.3,285.7 665.8,285.7 666.9,285.7 668,285.7 669.1,285.7 670.2,285.7 
					671.3,285.7 672.5,285.7 673.6,285.7 674.8,285.7 676,285.7 677.1,285.7 678.2,285.7 679.4,285.7 680.6,285.7 681.7,285.7 
					682.8,285.7 684.2,285.7 685.4,285.7 686.5,285.7 687.6,285.7 688.7,285.7 689.8,285.7 690.9,285.7 692,285.7 693.1,285.7 
					694.2,285.7 695.3,285.7 696.3,285.7 697.4,285.7 698.4,285.7 699.5,285.7 700.7,285.7 702,285.7 703.1,285.7 704.2,285.7 
					705.3,285.7 706.4,285.7 707.5,285.7 708.6,285.7 709.7,285.7 710.9,285.7 712,285.7 713.2,285.7 714.3,285.7 715.5,285.7 
					716.6,285.7 717.7,285.7 718.9,285.7 720.2,285.7 721.3,285.7 722.5,285.7 723.6,285.7 724.7,285.7 725.9,285.7 727,285.7 
					728.1,285.7 729.3,285.7 730.4,285.7 731.6,285.7 732.7,285.7 733.9,285.7 735,285.7 736.1,285.7 737.2,285.7 738.6,285.7 
					739.7,285.7 740.8,285.7 741.9,285.7 743,285.7 744.2,285.7 745.3,285.7 746.5,285.7 747.7,285.7 748.9,285.7 750.1,285.7 
					751.3,285.7 752.3,285.7 753.4,285.7 754.5,285.7 755.6,285.7 756.9,285.7 758.1,285.7 759.1,285.7 760.2,285.7 761.3,285.7 
					762.4,285.7 763.5,285.7 764.6,285.7 765.8,285.7 766.9,285.7 768.1,285.7 769.2,285.7 770.3,285.7 771.4,285.7 772.6,285.7 
					773.7,285.7 775,285.7 776.1,285.7 777.2,285.7 778.3,285.7 779.3,285.7 780.4,285.7 781.5,285.7 782.6,285.7 783.7,285.7 
					784.9,285.7 786.1,285.7 787.3,285.7 788.5,285.7 789.6,285.7 790.7,285.7 791.8,285.7 793.1,285.7 794.2,285.7 795.3,285.7 
					796.4,285.7 797.5,285.7 798.5,285.7 799.6,285.7 800.7,285.7 801.9,285.7 803.1,285.7 804.3,285.7 805.5,285.7 806.7,285.7 
					807.8,285.7 809,285.7 810.1,285.7 811.5,285.7 812.6,285.7 813.7,285.7 814.8,285.7 815.9,285.7 817,285.7 818.1,285.7 
					819.3,285.7 820.4,285.7 821.5,285.7 822.6,285.7 823.7,285.7 824.8,285.7 825.9,285.7 827,285.7 828.1,285.7 829.4,285.7 
					830.5,285.7 831.6,285.7 832.7,285.7 833.8,285.7 834.9,285.7 836,285.7 837.1,285.7 838.3,285.7 839.5,285.7 840.7,285.7 
					841.9,285.7 843.1,285.7 844.3,285.7 845.5,285.7 846.7,285.7 848.1,285.7 849.3,285.7 850.3,285.7 851.3,285.7 852.5,285.7 
					853.6,285.7 854.7,285.7 855.8,285.7 856.9,285.7 858.1,285.7 859.2,285.7 860.3,285.7 861.3,285.7 862.4,285.7 863.5,285.7 
					864.6,285.7 865.9,285.7 867.1,285.7 868.1,285.7 869.2,285.7 870.3,285.7 871.4,285.7 872.5,285.7 873.7,285.7 874.9,285.7 
					875.9,285.7 877.1,285.7 878.2,285.7 879.4,285.7 880.5,285.7 881.7,285.7 882.8,285.7 884.1,285.7 885.3,285.7 886.4,285.7 
					887.5,285.7 888.6,285.7 889.8,285.7 891.1,285.7 892.3,285.7 893.4,285.7 894.6,285.7 895.7,285.7 896.8,285.7 898,285.7 
					899.1,285.7 900.4,285.7 901.6,285.7 902.9,285.7 904,285.7 905.2,285.7 906.4,285.7 907.6,285.7 908.7,285.7 909.8,285.7 
					910.9,285.7 912,285.7 913,285.7 914.1,285.7 915.3,285.7 916.4,285.7 917.6,285.7 918.7,285.7 920,285.7 921.5,285.7 
					922.6,285.7 923.8,285.7 924.9,285.7 926,285.7 927.1,285.7 928.2,285.7 929.3,285.7 930.5,285.7 931.7,285.7 932.8,285.7 
					933.9,285.7 934.9,285.7 936.1,285.7 937.2,285.7 938.4,285.7 939.9,285.7 941.1,285.7 942.2,285.7 943.3,285.7 944.4,285.7 
					945.5,285.7 946.7,285.7 947.8,285.7 948.9,285.7 950,285.7 951.1,285.7 952.3,285.7 953.5,285.7 954.6,285.7 955.8,285.7 
					956.8,285.7 958.1,285.7 959.3,285.7 960.4,285.7 961.6,285.7 962.7,285.7 963.9,285.7 965.1,285.7 966.1,285.7 967.3,285.7 
					968.4,285.7 969.5,285.7 970.6,285.7 971.8,285.7 973,285.7 974.3,285.7 975.4,285.7 976.9,285.7 978,285.7 979.1,285.7 
					980.2,285.7 981.3,285.7 982.5,285.7 983.6,285.7 984.7,285.7 985.9,285.7 987.1,285.7 988.2,285.7 989.3,285.7 990.5,285.7 
					991.7,285.7 992.9,285.7 994.1,285.7 995.4,285.7 996.6,285.7 997.7,285.7 998.8,285.7 999.9,285.7 1001,285.7 1002.1,285.7 
					1003.2,285.7 1004.3,285.7 1005.4,285.7 1006.4,285.7 1007.6,285.7 1008.6,285.7 1009.7,285.7 1010.8,285.7 1012,285.7 
					1013.3,285.7 1014.4,285.7 1015.5,285.7 1016.5,285.7 1017.6,285.7 1018.8,285.7 1019.9,285.7 1021.1,285.7 1022.3,285.7 
					1023.5,285.7 1024.6,285.7 1025.8,285.7 1027,285.7 1028.2,285.7 1029.3,285.7 1030.4,285.7 1031.7,285.7 1032.8,285.7 
					1034,285.7 1035.1,285.7 1036.2,285.7 1037.3,285.7 1038.4,285.7 1039.5,285.7 1040.6,285.7 1041.8,285.7 1042.8,285.7 
					1044,285.7 1045.1,285.7 1046.3,285.7 1047.4,285.7 1048.5,285.7 1049.8,285.7 1050.9,285.7 1052,285.7 1053.1,285.7 
					1054.4,285.7 1055.5,285.7 1056.7,285.7 1057.8,285.7 1059,285.7 1060.2,289.4 1061.4,289.4 1062.5,289.4 1063.7,289.4 
					1064.8,289.4 1066,289.4 1067.1,289.4 1068.2,289.4 1069.3,289.4 1070.4,289.4 1071.5,289.4 1072.6,289.4 1073.8,289.4 
					1074.8,289.4 1075.9,289.4 1077.2,289.4 1078.3,289.4 1079.5,289.4 1080.6,289.4 1081.7,289.4 1082.9,289.4 1084,289.4 
					1085.2,289.4 1086.3,289.4 1087.5,289.4 1088.6,289.4 1089.8,289.4 1090.9,289.4 1092.1,289.4 1093.3,289.4 1094.5,289.4 
					1095.9,289.4 1096.9,289.4 1098,289.4 1099,289.4 1100.1,289.4 1101.2,289.4 1102.4,289.4 1103.6,289.4 1104.7,289.4 
					1105.9,289.4 1107,289.4 1108.1,289.4 1109.2,289.4 1110.3,289.4 1111.3,289.4 1112.5,289.4 1113.8,289.4 1115,289.4 
					1116,289.4 1117.1,289.4 1118.3,289.4 1119.4,289.4 1120.5,289.4 1121.6,289.4 1122.7,289.4 1123.9,289.4 1125.1,289.4 
					1126.2,289.4 1127.4,289.4 1128.6,289.4 1129.8,289.4 1130.9,289.4 1132.2,289.4 1133.3,289.4 1134.4,289.4 1135.6,289.4 
					1136.7,289.4 1137.9,289.4 1138.9,289.4 1140,289.4 1141.1,289.4 1142.4,289.4 1143.5,289.4 1144.7,289.4 1145.9,289.4 
					1147.1,289.4 1148.3,289.4 1149.4,289.4 1150.8,289.4 1152,289.4 1153.1,289.4 1154.3,289.4 1155.3,289.4 1156.4,289.4 
					1157.4,289.4 1158.5,289.4 1159.5,289.4 1160.6,289.4 1161.7,289.4 1162.7,289.4 1163.7,289.4 1164.8,289.4 1165.9,289.4 
					1166.9,289.4 1168.1,289.4 1169.2,289.4 1170.3,289.4 1171.4,289.4 1172.5,289.4 1173.6,289.4 1174.7,289.4 1175.7,289.4 
					1177,289.4 1178.2,289.4 1179.4,289.4 1180.6,289.4 1181.7,289.4 1182.9,289.4 1184,289.4 1185.1,289.4 1186.4,289.4 
					1187.5,289.4 1188.6,289.4 1189.6,289.4 1190.9,289.4 1192.1,289.4 1193.4,289.4 1194.6,289.4 1195.8,289.4 1197,289.4 
					1198.1,289.4 1199.2,289.4 1200.4,289.4 1201.6,289.4 1202.7,289.4 1204,289.4 1205.4,289.4 1206.5,289.4 1207.7,289.4 
					1208.9,289.4 1210.1,289.4 1211.3,289.4 1212.4,289.4 1213.6,289.4 1214.8,289.4 1215.9,289.4 1217,289.4 1218.2,289.4 
					1219.3,289.4 1220.4,289.4 1221.6,289.4 1222.7,289.4 1224.1,289.4 1225.2,289.4 1226.3,289.4 1227.5,289.4 1228.5,289.4 
					1229.6,289.4 1230.7,289.4 1231.8,289.4 1232.9,289.4 1234,289.4 1235.2,289.4 1236.4,289.4 1237.6,289.4 1238.9,289.4 
					1240.2,289.4 1241.3,289.4 1242.8,289.4 1243.9,289.4 1244.9,289.4 1246.1,289.4 1247.2,289.4 1248.3,289.4 1249.4,289.4 
					1250.5,289.4 1251.6,289.4 1252.6,289.4 1253.7,289.4 1254.8,289.4 1256,289.4 1257.1,289.4 1258.3,289.4 1259.4,289.4 
					1260.8,289.4 1261.9,289.4 1263.1,289.4 1264.2,289.4 1265.3,289.4 1266.4,289.4 				"/>
			</g>
		</g>
	</g>
</g>
<g>
	<defs>
		<rect id="SVGID_65_" x="72" y="72" width="583.3" height="413.3"/>
	</defs>
	<clipPath id="SVGID_66_">
		<use xlink:href="#SVGID_65_"  overflow="visible"/>
	</clipPath>
	<g clip-path="url(#SVGID_66_)" enable-background="new    ">
		<g>
			<defs>
				<rect id="SVGID_67_" x="123" y="141" width="525" height="20"/>
			</defs>
			<clipPath id="SVGID_68_">
				<use xlink:href="#SVGID_67_"  overflow="visible"/>
			</clipPath>
			<g clip-path="url(#SVGID_68_)">
				<defs>
					<rect id="SVGID_69_" x="123.6" y="141.8" width="523.5" height="18.9"/>
				</defs>
				<clipPath id="SVGID_70_">
					<use xlink:href="#SVGID_69_"  overflow="visible"/>
				</clipPath>
				<polyline clip-path="url(#SVGID_70_)" fill="none" stroke="#EF951A" points="124.2,142.4 126.4,142.4 128.4,142.4 130.7,142.4 
					132.8,142.4 135,142.4 137.1,142.4 139.4,158 141.6,158 144,158 146.4,158 148.7,158 150.8,158 152.9,158 155,158 157.2,158 
					159.6,158 161.8,158 164,158.4 166.3,160.1 168.7,160.1 171.2,160.1 174,160.1 176.4,160.1 178.7,160.1 180.8,160.1 183,160.1 
					185.1,160.1 187.2,160.1 189.4,160.1 191.6,160.1 193.8,160.1 195.9,160.1 198.1,160.1 200.3,160.1 202.5,160.1 204.6,160.1 
					206.8,160.1 209,160.1 211.2,160.1 213.4,160.1 215.7,160.1 217.9,160.1 220,160.1 222.2,160.1 224.3,160.1 226.4,160.1 
					228.7,160.1 230.8,160.1 233,160.1 235.1,160.1 237.3,160.1 239.3,160.1 241.5,160.1 243.7,160.1 245.9,160.1 248,160.1 
					250.1,160.1 252.3,160.1 254.4,160.1 256.6,160.1 258.8,160.1 260.9,160.1 263.1,160.1 265.2,160.1 267.3,160.1 269.5,160.1 
					271.6,160.1 273.7,160.1 275.9,160.1 646.5,160.1 				"/>
			</g>
		</g>
	</g>
</g>
<g>
	<defs>
		<rect id="SVGID_71_" x="72" y="72" width="583.3" height="413.3"/>
	</defs>
	<clipPath id="SVGID_72_">
		<use xlink:href="#SVGID_71_"  overflow="visible"/>
	</clipPath>
	<g clip-path="url(#SVGID_72_)" enable-background="new    ">
		<g>
			<defs>
				<rect id="SVGID_73_" x="121" y="233" width="527" height="163"/>
			</defs>
			<clipPath id="SVGID_74_">
				<use xlink:href="#SVGID_73_"  overflow="visible"/>
			</clipPath>
			<g clip-path="url(#SVGID_74_)">
				<defs>
					<rect id="SVGID_75_" x="121.4" y="233.6" width="525.7" height="162.2"/>
				</defs>
				<clipPath id="SVGID_76_">
					<use xlink:href="#SVGID_75_"  overflow="visible"/>
				</clipPath>
				<polyline clip-path="url(#SVGID_76_)" fill="none" stroke="#FBE12B" points="122,234.2 122.2,248.6 122.7,248.6 123.2,248.6 
					123.3,249.3 123.3,250.4 123.3,262.6 123.3,265.6 123.3,266.2 123.8,266.2 124.4,266.2 124.9,266.2 125.4,266.2 125.9,266.2 
					126.5,266.2 127,266.2 127.3,271 127.9,271 128.4,271 128.9,271 129.5,271 130,271 130.5,271 131,271 131.6,271 132.1,271 
					132.6,271 133.1,271 133.7,271 134.2,271 134.3,284.2 134.8,284.2 135.3,284.2 135.8,284.2 136.4,284.2 136.9,284.2 
					137.4,284.2 138,284.2 138.5,284.2 139,284.2 139.6,284.2 140.1,284.2 140.6,284.2 141.1,284.2 141.7,284.2 142.2,284.2 
					142.7,284.2 143.2,284.2 143.8,284.2 144.3,284.2 144.8,284.2 145.4,284.2 145.9,284.2 146.4,284.2 146.9,284.2 147.5,284.2 
					148,284.2 148.5,284.2 149,284.2 149.6,284.2 150.1,284.2 150.6,284.2 151.1,284.2 151.7,284.2 152.2,284.2 152.7,284.2 
					153.2,284.2 153.8,284.2 154.3,284.2 154.8,284.2 155.3,284.2 155.9,284.2 156.4,284.2 156.9,284.2 157.4,284.2 158,284.2 
					158.5,284.2 159,284.2 159.5,284.2 160.1,284.2 160.6,284.2 161.1,284.2 161.6,284.2 162.2,284.2 162.7,284.2 163.2,284.2 
					163.7,284.2 164.3,284.2 164.8,284.2 165.3,284.2 165.8,284.2 166.4,284.2 166.9,284.2 167.4,284.2 167.9,284.2 168.5,284.2 
					169,284.2 169.5,284.2 170,284.2 170.6,284.2 171.1,284.2 171.6,284.2 172.1,284.2 172.7,284.2 173.2,284.2 173.8,284.2 
					173.9,286.7 173.9,295.4 173.9,297.5 174.4,297.5 174.9,297.5 175.5,297.5 176,297.5 176.5,297.5 177,297.5 177.6,297.5 
					178.1,297.5 178.6,297.5 179.2,297.5 179.7,297.5 180.2,297.5 180.7,297.5 181.3,297.5 181.7,298.3 181.7,300.6 182.3,300.6 
					182.5,302.5 182.5,303.8 183.1,303.8 183.6,303.8 184.1,303.8 184.6,303.8 185.2,303.8 185.7,303.8 186.2,303.8 186.8,303.8 
					186.8,304.8 187.4,304.8 187.8,306 188.3,306 188.9,306 189.1,306.6 189.2,307.1 189.2,308.4 189.2,309.9 189.2,311.3 
					189.7,311.3 190.3,311.3 190.8,311.3 191.3,311.3 191.8,311.3 192.4,311.3 192.9,311.3 193.4,311.3 193.9,311.3 194.5,311.3 
					195,311.3 195.5,311.3 196,311.3 196.6,311.3 197.1,311.3 197.6,311.3 198.1,311.3 198.2,315.6 198.2,317.4 198.2,319.1 
					198.8,319.1 199.3,319.1 199.8,319.1 200.3,319.1 200.9,319.1 201.4,319.1 201.9,319.1 202.4,319.1 202.9,322.2 203.4,322.2 
					203.5,323.4 203.6,325.2 203.7,328.4 203.7,330.2 203.8,330.7 204.3,330.7 204.8,330.7 205.3,330.7 205.9,330.7 206.4,330.7 
					206.9,330.7 207,332.8 207,337 207.5,337.2 208.1,337.2 208.6,337.2 209.1,337.4 209.1,338.1 209.5,343.2 210.1,343.2 
					210.6,343.2 211.1,343.2 211.6,343.2 212.2,343.2 212.7,343.2 213.2,343.2 213.7,343.2 214.3,343.2 214.8,343.2 215.3,343.2 
					215.8,343.2 216.4,343.2 216.9,343.2 217.4,343.2 217.9,344.8 218.3,346.6 218.8,346.6 219.3,346.6 219.9,346.6 220.2,347.5 
					220.6,348.9 221.1,349.1 221.3,349.6 221.3,350.8 221.4,351.6 222,351.8 222.5,351.8 223,351.8 223.5,351.8 224.1,351.8 
					224.6,351.8 225.1,351.8 225.4,352.5 225.4,354.8 225.7,355.6 226.1,356.6 226.6,356.6 226.9,358.3 227.1,360.2 227.6,361.2 
					227.9,361.8 227.9,363.2 228.5,363.3 229,363.3 229.5,363.3 230,363.3 230.6,363.3 230.7,364.6 230.8,367.3 231.4,367.4 
					231.7,368.4 231.7,371.5 231.8,372.8 232.3,373.3 232.8,373.3 233.4,373.3 233.9,373.3 234.4,373.3 234.9,373.3 235.5,373.3 
					236,373.3 236.5,373.3 237,373.3 237.6,373.3 238.1,373.3 238.6,373.3 239.1,373.3 239.7,373.3 240,374.1 240.5,374.1 241,375 
					241.5,375 242,375.2 242.3,375.9 242.8,375.9 243.1,376.7 243.5,377.6 243.7,378.1 244.3,378.1 244.8,378.1 245.3,378.1 
					245.8,378.1 246.4,378.1 246.9,378.1 247.1,379.3 247.7,379.3 248.2,379.3 248.7,379.3 249.3,379.3 249.8,379.3 250.3,379.3 
					250.8,379.3 251.4,379.3 251.9,379.3 252.4,379.3 252.9,379.3 253.5,379.7 253.7,381.3 254.2,381.3 254.7,381.3 255.2,381.3 
					255.8,381.3 256.3,381.3 256.8,381.3 257.3,381.3 257.9,381.3 258.4,381.3 258.9,381.3 259.4,381.3 260,381.3 260.5,381.7 
					261,381.7 261.5,382 261.8,382.8 262.3,382.8 262.7,383.4 263.3,383.4 263.8,383.4 264.3,383.8 264.8,383.8 265.4,383.8 
					265.9,383.8 266.4,383.8 266.9,384.1 267.5,384.1 268,384.1 268.5,384.1 269.1,384.1 269.6,384.1 270.1,384.1 270.6,384.1 
					271.2,384.1 271.2,384.9 271.7,384.9 272.2,384.9 272.7,385.1 272.8,385.7 273.3,385.7 273.9,385.7 274.4,385.7 274.9,385.7 
					275.4,385.7 276,385.7 276.5,385.7 277,385.7 277.5,385.7 278.1,385.7 278.6,385.7 279.1,385.9 279.6,386.1 280.2,386.4 
					280.7,386.4 281.2,386.4 281.7,386.4 282.3,386.4 282.8,386.4 283.3,386.4 283.8,386.7 284.4,387 284.9,387 285.4,387 
					285.9,387 286.5,387 287,387 287.5,387 288.1,387 288.6,387 289.1,387 289.6,387.1 290.2,387.1 290.7,387.1 291.2,387.1 
					291.8,387.1 292.3,387.1 292.8,387.1 293.3,387.1 293.9,387.1 294.4,387.1 294.9,387.1 295.4,387.1 296,387.1 296.5,387.1 
					297,387.1 297.5,387.3 298.1,387.3 298.6,387.3 299.1,387.3 299.6,387.3 300.2,387.3 300.7,387.7 301.2,387.7 301.7,387.8 
					302.3,388 302.8,388.2 303.3,388.2 303.8,388.4 304.4,388.4 304.9,388.4 305.4,388.4 305.7,389.7 306.2,389.8 306.8,389.8 
					307.3,390.1 307.8,390.1 308.3,390.1 308.9,390.1 309.4,390.1 309.8,390.7 310.3,390.7 310.9,390.7 311.4,390.7 311.9,390.7 
					312.4,390.7 313,390.7 313.5,390.7 314,390.7 314.5,390.7 315.1,390.7 315.6,390.7 316.1,390.7 316.6,390.7 317.2,390.7 
					317.7,390.7 318.2,390.7 318.7,390.7 319.3,390.7 319.6,391.4 319.6,392.1 319.9,393 320.5,393 321,393 321.5,393 321.9,394.2 
					322.4,394.2 322.9,394.2 323.4,394.6 324,394.6 324.5,394.6 325,394.6 325.5,394.6 326.1,394.6 326.6,394.6 327.1,394.6 
					327.6,394.6 328.2,394.6 328.7,394.6 329.2,394.6 329.8,394.6 330.3,394.6 330.8,394.6 331.3,394.6 331.9,394.6 332.4,394.6 
					332.9,394.6 333.4,394.6 334,394.6 334.5,394.6 335,394.6 335.5,394.6 336.1,394.6 336.6,394.7 337.1,394.7 337.6,394.7 
					338.2,394.7 338.7,394.7 339.2,394.7 339.7,394.7 340.3,395 340.8,395 341.3,395 341.8,395 342.4,395 342.9,395 343.4,395 
					343.9,395 344.5,395 345,395 345.5,395 346,395 346.6,395 347.1,395 347.6,395 348.1,395 348.7,395 349.2,395 349.7,395 
					350.2,395 350.8,395 351.3,395 351.8,395 352.3,395 352.9,395 353.4,395 353.9,395 354.4,395 355,395 355.5,395 356,395 
					356.5,395 357.1,395 357.6,395 358.1,395 358.6,395 359.2,395 359.7,395 360.2,395 360.7,395 361.3,395 361.8,395 362.3,395 
					362.8,395 363.4,395 363.9,395 364.4,395 364.9,395 365.5,395 366,395 366.5,395 367,395 367.6,395 368.1,395 368.6,395 
					369.1,395 369.7,395 370.2,395 370.7,395 371.2,395 371.8,395.3 372.3,395.3 372.8,395.3 373.3,395.3 646.5,395.3 				"/>
			</g>
		</g>
	</g>
</g>
<g>
	<defs>
		<rect id="SVGID_77_" x="72" y="72" width="583.3" height="413.3"/>
	</defs>
	<clipPath id="SVGID_78_">
		<use xlink:href="#SVGID_77_"  overflow="visible"/>
	</clipPath>
	<g clip-path="url(#SVGID_78_)" enable-background="new    ">
		<g>
			<defs>
				<rect id="SVGID_79_" x="121" y="236" width="527" height="141"/>
			</defs>
			<clipPath id="SVGID_80_">
				<use xlink:href="#SVGID_79_"  overflow="visible"/>
			</clipPath>
			<g clip-path="url(#SVGID_80_)">
				<defs>
					<rect id="SVGID_81_" x="121.8" y="236.7" width="525.3" height="139.6"/>
				</defs>
				<clipPath id="SVGID_82_">
					<use xlink:href="#SVGID_81_"  overflow="visible"/>
				</clipPath>
				<polyline clip-path="url(#SVGID_82_)" fill="none" stroke="#70BF41" points="122.4,237.3 122.5,240.4 122.5,247.2 122.6,261.7 
					122.6,276.2 122.7,277.9 122.7,281.9 122.8,284.1 122.9,290.3 122.9,295.6 123,297.7 123,299.1 123,299.8 123.1,300.9 
					123.2,302.2 123.2,303.5 123.3,306.2 123.5,307 123.5,308.7 123.7,309.4 123.7,311.6 123.8,314.1 123.8,314.8 123.9,316.2 
					124.1,317.2 124.2,319.5 124.4,320.9 124.4,321.8 124.6,322.5 124.7,323.8 124.7,327.6 124.8,328.8 124.8,329.4 124.9,330.2 
					125,332.7 125,333.7 125.1,334.8 125.6,335.9 125.7,336.8 125.8,339.7 126.2,341.7 126.6,344.9 126.7,345.7 127,348.3 
					127.3,353.4 127.6,354 127.7,354.6 128,355.1 128.5,355.1 128.7,355.9 129.2,355.9 129.4,357.2 129.9,357.2 130.3,358.9 
					130.8,358.9 131.3,358.9 131.9,359.3 132.4,359.9 133,359.9 133.5,360.1 134,360.1 134.6,360.1 135,361.5 135.2,362.1 
					135.5,362.9 136,362.9 136.6,362.9 137.1,362.9 137.7,362.9 137.9,363.7 138.5,363.7 138.6,365.2 139.1,365.6 139.3,366.3 
					139.9,366.3 140.4,366.3 140.9,366.3 141.5,366.3 141.7,366.9 142.3,366.9 142.8,366.9 143.3,366.9 143.9,366.9 144.4,366.9 
					144.9,366.9 145.4,366.9 145.7,367.7 146.2,367.7 146.7,367.7 147.3,367.7 147.8,367.7 148.3,367.7 148.9,367.8 149.5,368 
					150.1,368 150.6,368 151.2,368 151.7,368 152.3,368 152.8,368 153.4,368 153.9,368 154.4,368 155,368 155.5,368.1 156.1,368.1 
					156.6,368.1 157.2,368.1 157.7,368.1 158.2,368.1 158.8,368.1 159.3,368.1 159.8,368.6 160.4,368.6 160.9,368.6 161.4,368.6 
					161.9,368.7 162.5,368.7 163,368.7 163.6,368.7 164.1,368.7 164.6,368.7 165.2,368.7 165.7,368.7 166.2,368.7 166.8,368.7 
					167.3,368.7 167.9,368.7 168.5,368.7 169,368.7 169.5,368.8 170.1,368.8 170.7,368.8 171.2,368.8 171.7,368.8 172.2,368.8 
					172.8,368.8 173.3,368.8 173.9,368.8 174.4,368.8 174.9,368.8 175.4,368.8 176,368.8 176.5,368.8 177,368.8 177.6,368.8 
					178.1,368.9 178.6,368.9 179.2,368.9 179.7,368.9 180.2,368.9 180.8,368.9 181.3,368.9 181.9,368.9 182.4,368.9 183,368.9 
					183.5,368.9 184,368.9 184.6,368.9 185.1,368.9 185.6,368.9 186.2,368.9 186.7,368.9 187.3,368.9 187.8,368.9 188.4,369.1 
					188.9,369.1 189.5,369.1 190,369.1 190.5,369.1 191.1,369.1 191.6,369.2 192.2,369.2 192.7,369.2 193.3,369.2 193.8,369.2 
					194.3,369.2 194.7,370.2 195.2,370.2 195.8,370.2 196.3,370.2 196.8,370.2 197.3,370.2 197.9,370.2 198.4,370.2 199,370.2 
					199.5,370.2 200.1,370.2 200.6,370.3 201.1,370.3 201.7,370.3 202.2,370.3 202.8,371.2 203.3,371.2 203.8,371.2 204.4,371.2 
					204.9,371.3 205.5,371.3 205.8,371.9 206.4,371.9 206.9,371.9 207.4,371.9 208,373.1 208.5,373.1 209,373.1 209.6,373.1 
					210.1,373.2 210.7,373.2 211,373.8 211.5,373.8 212,373.8 212.6,373.8 212.9,374.9 213.5,374.9 214,374.9 214.6,374.9 
					215.1,374.9 215.6,374.9 216.2,374.9 216.4,375.7 217,375.7 217.5,375.7 218.1,375.7 218.6,375.7 219.2,375.7 219.7,375.7 
					220.3,375.7 220.8,375.7 221.3,375.7 221.9,375.7 222.5,375.7 223,375.7 223.5,375.7 224.1,375.7 224.6,375.7 225.1,375.7 
					225.6,375.7 226.2,375.7 226.7,375.7 227.2,375.7 227.8,375.7 228.3,375.7 228.8,375.7 229.4,375.7 229.9,375.7 230.4,375.7 
					230.9,375.7 231.5,375.7 232,375.7 232.5,375.7 233.1,375.7 233.6,375.7 234.2,375.7 234.7,375.7 235.2,375.7 235.8,375.7 
					236.3,375.7 236.9,375.7 237.4,375.7 237.9,375.7 238.5,375.7 239,375.7 239.5,375.7 240.1,375.7 240.6,375.7 241.1,375.7 
					241.7,375.7 242.2,375.7 242.7,375.7 243.3,375.7 243.8,375.7 244.4,375.7 244.9,375.7 245.4,375.7 245.9,375.7 246.5,375.7 
					247,375.7 247.5,375.7 248.1,375.7 248.6,375.7 249.1,375.7 249.7,375.7 250.2,375.7 250.8,375.7 251.3,375.7 251.8,375.7 
					252.4,375.7 252.9,375.7 253.4,375.7 254,375.7 254.5,375.7 255,375.7 255.6,375.7 256.1,375.7 256.6,375.7 257.2,375.7 
					257.7,375.7 258.3,375.7 258.8,375.7 259.3,375.7 259.8,375.7 260.4,375.7 260.9,375.7 261.4,375.7 261.9,375.7 262.5,375.7 
					263,375.7 263.5,375.7 264.1,375.7 264.6,375.7 265.1,375.7 265.7,375.7 266.2,375.7 266.7,375.7 267.2,375.7 267.8,375.7 
					268.3,375.7 268.8,375.7 269.4,375.7 269.9,375.7 270.4,375.7 271,375.7 271.5,375.7 272,375.7 272.6,375.7 273.1,375.7 
					273.7,375.7 274.2,375.7 274.7,375.7 275.2,375.7 275.8,375.7 276.3,375.7 276.9,375.7 277.4,375.7 277.9,375.7 278.5,375.7 
					279,375.7 279.5,375.7 280.1,375.7 280.6,375.7 281.1,375.7 281.7,375.7 282.2,375.7 282.7,375.7 283.3,375.7 283.8,375.7 
					284.3,375.7 284.9,375.7 285.4,375.7 286,375.7 286.5,375.7 287,375.7 287.6,375.7 288.1,375.7 288.7,375.7 289.2,375.7 
					289.7,375.7 290.3,375.7 290.8,375.7 291.3,375.7 291.8,375.7 292.4,375.7 292.9,375.7 293.5,375.7 294,375.7 294.5,375.7 
					295.1,375.7 295.6,375.7 296.1,375.7 296.7,375.7 297.2,375.7 297.8,375.7 298.3,375.7 298.8,375.7 299.4,375.7 299.9,375.7 
					300.4,375.7 301,375.7 301.5,375.7 302,375.7 302.6,375.7 303.1,375.7 303.7,375.7 304.2,375.7 304.7,375.7 305.2,375.7 
					305.8,375.7 306.3,375.7 306.8,375.7 307.3,375.7 307.9,375.7 308.4,375.7 309,375.7 309.5,375.7 310.1,375.7 310.6,375.7 
					311.2,375.7 311.7,375.7 312.3,375.7 312.8,375.7 313.3,375.7 313.9,375.7 314.4,375.7 314.9,375.7 315.4,375.7 316,375.7 
					316.5,375.7 317,375.7 317.6,375.7 318.1,375.7 318.6,375.7 319.2,375.7 319.7,375.7 320.2,375.7 320.8,375.7 321.3,375.7 
					321.8,375.7 322.4,375.7 322.9,375.7 323.4,375.7 324,375.7 324.5,375.7 325.1,375.7 325.6,375.7 326.1,375.7 326.7,375.7 
					327.2,375.7 327.8,375.7 328.3,375.7 328.8,375.7 329.3,375.7 329.9,375.7 330.4,375.7 330.9,375.7 331.5,375.7 332.1,375.7 
					332.6,375.7 333.1,375.7 333.7,375.7 334.2,375.7 334.7,375.7 335.3,375.7 335.8,375.7 336.4,375.7 336.9,375.7 337.4,375.7 
					337.9,375.7 338.5,375.7 339,375.7 339.5,375.7 340,375.7 340.6,375.7 341.1,375.7 341.6,375.7 342.1,375.7 342.7,375.7 
					343.2,375.7 343.8,375.7 344.3,375.7 344.9,375.7 345.4,375.7 345.9,375.7 346.4,375.7 347,375.7 347.5,375.7 646.5,375.7 				
					"/>
			</g>
		</g>
	</g>
</g>
<g>
	<defs>
		<rect id="SVGID_83_" x="72" y="72" width="583.3" height="413.3"/>
	</defs>
	<clipPath id="SVGID_84_">
		<use xlink:href="#SVGID_83_"  overflow="visible"/>
	</clipPath>
	<g clip-path="url(#SVGID_84_)" enable-background="new    ">
		<g>
			<defs>
				<rect id="SVGID_85_" x="121" y="246" width="527" height="132"/>
			</defs>
			<clipPath id="SVGID_86_">
				<use xlink:href="#SVGID_85_"  overflow="visible"/>
			</clipPath>
			<g clip-path="url(#SVGID_86_)">
				<defs>
					<rect id="SVGID_87_" x="121.8" y="246" width="525.3" height="131.8"/>
				</defs>
				<clipPath id="SVGID_88_">
					<use xlink:href="#SVGID_87_"  overflow="visible"/>
				</clipPath>
				<polyline clip-path="url(#SVGID_88_)" fill="none" stroke="#51A7F9" points="122.4,246.6 123.4,246.6 123.9,265.3 124.7,265.3 
					125.2,265.3 126.1,265.3 127.2,265.3 127.7,266.3 128.7,273.2 129.7,273.2 130.6,273.2 131.5,273.2 132.4,273.2 133,273.2 
					133.9,273.2 134.8,273.2 135.8,273.2 136.5,273.2 137.4,275.8 138.4,275.8 139.3,275.8 140.2,275.8 141.1,275.8 142,275.8 
					143,275.8 143.9,275.8 144.7,275.8 145.7,275.8 146.6,280.1 147.5,280.1 148.4,280.1 149.4,280.1 150.3,286.1 151.3,286.1 
					151.7,286.9 152.5,286.9 153.4,286.9 154.3,286.9 155.2,286.9 156.1,286.9 157,286.9 157.8,286.9 158.3,287.5 158.8,287.5 
					159.7,287.5 160.6,287.5 161.6,287.5 162.4,287.5 163.3,287.6 164.1,287.6 164.9,287.6 165.8,288.5 166.2,289.6 167.2,289.6 
					168.1,291 168.6,291 169.5,291 170.4,291 171.2,291 172,291 172.9,291 173.7,291 174.7,291.7 175.5,291.7 176.4,291.7 
					177.2,291.7 178.1,293.5 178.5,294.4 179.4,294.4 180.2,294.4 181.1,294.4 181.9,294.4 182.8,294.4 183.7,294.4 184.6,296.4 
					185.5,298.5 186.4,298.5 187.4,298.5 188.2,298.5 188.8,298.5 189.7,298.5 190.5,298.5 191.3,300.5 192.3,300.5 193.2,300.5 
					193.6,302.3 194.4,302.3 195.3,302.3 196.1,302.3 197,302.3 197.9,302.3 198.9,302.3 199.4,302.3 200.2,302.3 201.1,306.4 
					201.9,306.4 202.9,306.4 203.3,309.8 204.3,309.8 205.2,309.8 205.8,318.2 206.6,318.2 207.5,318.2 208.6,318.2 209.1,318.2 
					210,318.2 210.5,318.2 211.3,318.2 212.2,318.2 213.1,318.2 213.8,318.2 214.7,318.2 215.7,318.2 216.5,318.2 216.9,318.9 
					217.8,318.9 218.7,318.9 219.7,318.9 220.5,318.9 221.3,319 222.3,319 223.1,319 224,319 224.9,319.7 225.8,319.7 226.7,319.7 
					227.6,319.7 228.5,319.7 229.4,321.3 230,321.3 230.9,321.3 231.8,321.3 232.7,322 233.6,322 234.6,322 235.4,322 236.2,322 
					237.1,322 237.9,322 238.8,322 239.7,322 240.6,322 241.5,322.4 242.3,322.4 243.2,322.4 244.1,322.4 244.9,322.4 245.8,322.4 
					246.3,323.2 247.3,323.2 248.2,323.2 248.6,324.8 249.5,324.8 250.5,324.8 251.4,326.9 252.1,326.9 252.6,326.9 253.5,326.9 
					254,326.9 255,326.9 255.5,326.9 256.4,326.9 257.2,326.9 258,326.9 258.9,326.9 259.9,326.9 260.8,326.9 261.6,326.9 
					262.1,326.9 263.1,326.9 264,326.9 264.9,326.9 265.7,326.9 266.7,326.9 267.6,326.9 268.5,327.2 269.3,327.2 270.2,327.2 
					271,327.2 271.9,327.2 272.7,327.2 273.4,327.2 274.2,327.2 275.2,327.2 276,327.2 276.5,327.9 277.3,327.9 278.1,327.9 
					279,327.9 279.5,327.9 280.4,327.9 281.2,327.9 282.1,327.9 282.9,327.9 283.3,329.5 284.1,329.5 284.9,329.5 285.9,329.5 
					286.8,329.5 287.7,329.5 288.7,329.5 289.6,329.5 290.4,329.5 290.8,330.1 291.6,330.1 292.4,330.1 293.3,330.1 294.2,330.1 
					295.1,330.1 296.1,330.1 297,331.5 298,331.5 298.9,331.5 299.4,331.5 300.3,331.5 301.3,331.5 302.1,331.5 302.9,331.5 
					303.6,331.5 304.5,331.5 305.4,331.5 306.2,331.5 307.2,331.5 308,331.5 308.9,331.5 309.7,331.5 310.6,331.5 311.4,331.5 
					312.3,331.5 313.2,331.5 314.1,331.5 315,331.5 315.9,331.5 316.7,331.5 317.6,331.5 318.5,331.6 319.2,331.6 319.6,332.1 
					320.4,332.1 321.3,332.1 321.7,334.7 322.5,334.7 323.4,334.7 324.3,334.7 325.2,334.7 325.7,334.7 326.6,334.7 327.5,334.7 
					328.3,334.7 329.3,334.7 330,334.7 330.9,334.7 331.7,335.2 332.6,335.2 333.5,335.2 334.4,335.2 335.2,335.2 336.1,335.2 
					336.9,335.2 337.8,335.2 338.8,335.2 339.6,335.2 340.4,335.2 341.2,335.2 341.9,335.7 342.7,335.7 343.5,335.7 344.3,335.7 
					345.2,335.7 346.1,335.7 346.9,335.7 347.7,335.7 348.5,335.7 349.4,335.7 350.2,335.7 351,335.7 351.8,335.7 352.6,335.7 
					353.4,335.7 354.3,335.7 355.1,335.7 355.7,335.7 356.2,337 357.1,337 358,337 358.9,337 359.8,337 360.6,337 361.5,337 
					362.5,337 363.2,337 364.1,337 365,337 365.9,337 366.9,337 367.8,337 368.6,337 369.5,337 370.4,337 370.9,337 371.8,337 
					372.6,337 373.5,337 374.4,337 375.2,337 376.2,337.2 376.7,337.2 377.2,338.1 378.1,338.1 379.1,338.1 379.9,338.1 
					380.8,338.1 381.6,338.1 382.5,338.1 383.3,338.1 384.1,338.1 385,338.1 385.9,338.1 386.7,338.1 387.5,338.1 388.4,338.1 
					389.2,338.1 389.9,338.1 390.7,338.1 391.6,338.1 392.5,338.1 393.2,339.3 394.1,339.3 395,339.3 395.8,339.3 396.7,339.3 
					397.7,339.3 398.6,339.3 399,342.2 399.8,342.2 400.6,342.2 401.5,342.2 402.4,342.2 403.2,342.2 403.6,344.9 404.4,344.9 
					405.3,344.9 406.1,344.9 406.8,344.9 407.7,344.9 408.6,344.9 409.5,344.9 410.3,344.9 411.3,344.9 412.1,344.9 413.1,344.9 
					413.8,345.4 414.6,345.4 415.5,345.4 416.3,345.4 417.2,345.4 418.1,345.4 418.9,345.4 419.9,345.4 420.8,345.4 421.6,345.4 
					422.5,345.9 423.4,345.9 424.3,345.9 425.2,347.3 426,347.4 426.9,347.4 427.8,347.4 428.7,347.4 429.4,347.4 430.3,347.4 
					431.2,347.4 432,347.4 432.9,347.4 433.7,347.4 434.6,348.3 435.5,348.3 436.3,348.3 437.1,348.3 438,348.3 438.8,348.3 
					439.7,348.3 440.5,348.3 441.3,348.3 442.2,348.3 443.1,348.3 443.9,348.3 444.7,348.3 445.5,348.3 446.4,348.3 447.3,348.3 
					448.1,348.3 448.5,351.9 449.3,351.9 450.1,351.9 450.9,351.9 451.8,351.9 452.6,351.9 453.4,351.9 454.3,351.9 455.2,351.9 
					456,351.9 456.9,351.9 457.8,351.9 458.6,351.9 459.4,351.9 460.3,351.9 461.1,351.9 461.8,351.9 462.3,352.8 463.1,352.8 
					463.9,352.8 464.8,352.8 465.5,352.8 466.2,352.8 467,352.8 467.8,352.8 468.7,352.8 469.6,352.8 470.4,352.8 471.3,352.8 
					472.1,352.8 472.9,352.8 473.7,352.9 474.4,352.9 475.3,352.9 476.1,352.9 477,352.9 477.9,352.9 478.7,353.6 479.5,353.6 
					480.3,353.6 481.1,353.6 481.9,353.6 482.7,353.6 483.6,353.6 484.4,353.6 485.3,353.6 486.1,353.6 486.9,353.6 487.7,353.7 
					488.5,353.7 489.3,353.7 490,353.7 490.7,353.7 491.5,353.7 492.4,353.7 492.8,356.7 493.5,356.7 494.2,356.7 495,356.7 
					495.9,356.7 496.8,356.7 497.6,356.7 498.4,356.7 499.3,356.7 500.2,356.7 501.1,356.7 501.9,356.7 502.7,356.7 503.5,356.7 
					504.3,356.7 505.1,356.7 506,356.7 506.8,356.7 507.7,356.7 508.6,356.7 509.5,356.7 510.4,356.7 511.3,357 512.1,357 513,357 
					514,357 514.9,357 515.5,357 516.3,357 517.2,357.1 518.2,357.1 518.8,357.1 519.7,357.1 520.5,357.1 521.4,357.1 522.2,357.1 
					523.2,357.1 524.1,357.1 524.7,357.1 525.5,357.1 526.1,357.1 527.2,357.1 527.7,357.1 528.6,357.1 529.5,359.5 530.3,359.5 
					531.2,359.5 532,359.5 532.8,359.5 533.7,359.5 534.5,359.5 535.3,359.5 536.1,359.5 537,359.5 537.8,359.5 538.5,359.5 
					539.3,359.5 539.9,359.5 540.9,359.5 541.4,359.5 542.4,359.5 543.2,359.5 543.6,360.6 544.5,360.6 545.4,360.6 546.2,360.6 
					547,360.6 547.9,360.6 548.6,360.6 549.5,360.6 550.3,360.6 551.1,360.6 552,360.6 552.7,360.6 553.5,360.6 554.4,360.6 
					555.3,360.6 556.1,360.7 557,360.7 557.9,360.7 558.7,360.7 559.5,360.7 560.3,360.7 561.2,361.5 562,361.5 562.5,364.6 
					563.3,364.6 564.1,364.6 564.8,364.6 565.7,364.6 566.6,364.6 567.4,364.6 568.3,364.6 569.1,364.6 569.9,364.6 570.8,364.6 
					571.7,364.6 572.5,364.6 573.3,364.6 574.2,364.6 575.1,364.6 576,364.9 576.9,364.9 577.7,364.9 578.6,364.9 579.4,364.9 
					580.2,364.9 581,364.9 581.9,364.9 582.6,364.9 583.5,364.9 584.2,364.9 585,364.9 585.8,364.9 586.6,364.9 587,365.5 
					587.8,365.5 588.7,365.5 589.5,365.5 589.9,366.4 590.7,366.4 591.6,366.4 592.4,366.4 593.3,366.4 594.2,366.4 595,366.4 
					595.6,366.4 596.5,366.4 597.4,366.4 598.2,366.4 599,366.4 599.9,366.4 600.6,366.4 601.4,366.4 602.3,366.4 603.1,366.4 
					603.9,366.4 604.8,366.4 605.6,366.4 606.5,366.4 607.3,366.4 608.1,366.4 608.9,366.4 609.8,366.4 610.7,366.4 611.6,366.4 
					612.5,366.4 613.3,366.4 614,366.4 614.9,366.4 615.8,366.4 616.6,366.4 617.5,366.4 618,368.3 618.8,368.3 619.7,368.3 
					620.4,368.3 621.2,368.3 622,368.3 622.9,368.3 623.7,368.3 624.5,368.3 625.5,368.3 626.4,368.3 627.3,368.3 628.2,368.3 
					629,368.3 629.8,368.3 630.7,368.3 631.6,368.3 632.3,368.3 633.3,368.3 634.1,368.3 634.9,368.3 635.7,368.3 636.5,368.3 
					637.4,368.3 638.2,368.3 639,368.3 639.5,369.8 640.3,369.8 641.1,369.8 641.9,369.8 642.7,369.8 643.5,369.8 644.4,369.8 
					645.2,369.8 646,369.8 646.7,369.8 647.5,369.8 648.4,369.8 649.2,369.8 650,369.8 650.9,369.8 651.7,369.8 652.5,369.8 
					653.4,369.8 654.2,369.8 655.1,369.8 656,369.8 656.9,369.8 657.7,369.8 658.5,369.8 659.4,369.8 660.2,369.8 660.6,371 
					661.5,371 662.2,371 663.1,371 663.9,371 664.7,371 665.5,371 666.3,371 667.2,371 668,371 668.8,371 669.7,371 670.5,371 
					671.4,371 672.2,371 673,371 673.8,371 674.6,371 675.4,371 676.3,371 677.1,371 677.9,371 678.4,371 679.2,371 680,371 
					680.9,371 681.7,371 682.6,371 683.6,371 684.5,371 685.3,371 686.2,371 687,371 687.8,371 688.6,371 689.5,371 690.4,371 
					691.1,371.3 691.9,371.3 692.6,371.3 693.5,371.3 694.4,371.3 695.2,371.3 696,371.3 696.8,371.3 697.6,371.3 698.4,371.3 
					699.2,371.3 700.1,371.3 701,371.3 701.8,371.3 702.6,371.3 703.4,371.3 704.1,371.3 705,371.3 705.7,371.3 706.4,371.3 
					707.2,371.3 707.9,371.3 708.7,371.3 709.5,371.3 710.3,371.3 711.1,371.3 711.8,371.3 712.7,371.3 713.5,371.3 713.9,372 
					714.8,372 715.6,372 716.4,372 717.2,372 718.1,372 718.9,372 719.8,372 720.6,372 721.4,372 722.2,372 723,372 723.9,372 
					724.7,372 725.5,372 726.5,372.2 727.3,372.2 728.1,372.2 728.9,372.2 729.8,372.2 730.6,372.2 731.5,372.2 732.3,372.2 
					733,372.2 733.9,372.2 734.7,372.2 735.6,372.2 736.5,372.2 737.3,372.2 738.2,372.2 739,372.2 739.7,372.2 740.5,372.2 
					741.3,372.2 741.8,372.8 742.6,372.8 743.5,372.8 744.4,372.8 745.1,372.8 745.9,372.8 746.7,372.8 747.6,372.8 748.4,372.8 
					749.3,372.8 750.2,372.8 750.9,372.8 751.7,372.8 752.6,372.8 753.4,372.8 754.2,372.8 755.1,372.8 756,372.8 756.9,372.8 
					757.7,372.8 758.6,372.8 759.5,372.8 760.4,372.8 761.2,372.8 762.1,372.8 763,372.8 763.7,372.8 764.6,372.8 765.4,372.8 
					766.2,372.8 767.1,372.8 767.9,372.8 768.7,372.8 769.6,372.9 770.3,372.9 771.1,372.9 771.9,372.9 772.8,372.9 773.8,372.9 
					774.7,372.9 775.5,373.7 776.5,373.7 777.2,373.7 778.1,373.7 778.9,373.7 779.7,373.7 780.6,373.7 781.4,373.7 782.2,373.7 
					783.1,373.7 783.8,373.7 784.7,373.7 785.4,373.7 786.2,373.7 787,373.7 787.7,373.7 788.6,373.7 789.3,373.7 790.3,373.7 
					791.1,373.7 791.9,373.7 792.8,373.7 793.6,373.7 794.5,373.7 795.3,373.7 796.2,373.7 797,373.7 797.8,373.7 798.6,373.7 
					799.4,373.7 800.1,374.4 800.8,374.4 801.7,374.4 802.5,374.4 803.4,374.4 804.3,374.4 805.1,374.4 806.1,374.4 806.9,374.4 
					807.7,374.4 808.5,374.4 809.5,374.4 810.4,374.4 811.2,374.4 812,374.4 812.9,374.4 813.7,374.4 814.5,374.4 815.4,374.4 
					816.2,374.4 817.1,374.4 817.9,374.4 818.8,374.4 819.6,374.4 820.4,374.4 821.2,374.4 822.1,374.4 823,374.4 823.7,374.4 
					824.6,374.4 825.4,374.4 826.2,374.4 827.1,374.4 827.8,374.4 828.7,374.4 829.5,374.4 830.3,374.4 831.1,374.4 831.9,374.4 
					832.7,374.4 833.5,374.4 834.4,374.4 835.3,374.4 836,374.4 836.8,374.4 837.6,374.4 838.5,374.4 839.3,374.4 840.1,374.4 
					840.9,374.4 841.6,374.4 842.5,374.4 843.3,374.4 844.3,374.4 845.1,374.4 845.8,374.4 846.5,374.4 847.4,374.4 848.3,374.5 
					849,374.5 849.9,374.5 850.7,374.5 851.6,374.5 852.4,374.5 853.3,374.5 854.1,374.5 854.9,374.5 855.7,374.5 856.5,374.5 
					857.3,374.5 858.1,374.5 858.9,374.5 859.8,374.5 860.7,374.5 861.4,374.5 862.1,374.5 863,374.5 863.9,374.5 864.6,374.5 
					865.3,374.5 866.2,374.5 867,374.5 867.9,374.5 868.8,374.5 869.6,374.5 870.5,374.5 871.5,374.5 872.3,374.5 873,374.5 
					873.9,374.6 874.7,374.6 875.6,374.6 876.3,374.6 877.2,374.6 878,374.6 878.8,374.6 879.8,374.6 880.7,374.6 881.5,374.6 
					882.2,374.6 882.9,374.6 883.7,374.6 884.6,374.6 885.4,374.6 886.3,374.6 887,374.6 887.7,374.6 888.6,374.6 889.4,374.6 
					890.2,374.6 891,374.6 891.8,374.6 892.7,374.6 893.6,374.6 894.5,374.6 895.4,374.6 896.1,374.6 896.9,374.6 897.7,374.6 
					898.5,374.6 899.4,374.6 900.3,374.6 901.1,374.6 902,374.6 902.8,374.6 903.8,374.6 904.6,374.6 905.4,374.6 906.2,374.6 
					907,374.6 907.8,374.6 908.7,374.6 909.6,374.6 910.4,374.6 911.2,374.6 912.1,374.6 912.9,374.6 913.9,374.6 914.3,375.7 
					915.2,375.7 916.1,375.7 916.9,375.7 917.7,375.7 918.5,375.7 919.3,375.7 920.2,375.7 921.2,375.7 922.1,375.7 922.9,375.7 
					923.7,375.7 924.6,375.7 925.4,375.7 926.3,375.7 927.1,375.7 928,375.7 928.8,375.7 929.6,375.7 930.6,375.7 931.4,375.7 
					932.4,375.7 933.2,375.7 934,375.7 934.8,375.7 935.6,375.7 936.5,375.7 937.4,375.7 938.1,375.7 938.9,375.7 939.7,375.7 
					940.4,375.7 941.2,375.7 942.1,375.7 942.9,375.7 943.7,375.7 944.5,375.7 945.3,375.7 946,375.7 946.9,375.7 947.8,375.7 
					948.6,375.7 949.4,375.7 950.3,375.7 951.2,375.7 952.1,375.7 952.9,375.7 953.7,375.7 954.5,375.7 955.3,375.7 956.1,375.7 
					956.9,376.2 957.8,376.2 958.6,376.2 959.4,376.2 960.2,376.2 961.1,376.2 962,376.2 962.8,376.2 963.6,376.2 964.3,376.2 
					965.2,376.2 966,376.2 966.8,376.2 967.6,376.2 968.4,376.2 969.3,376.2 970,376.2 970.8,376.2 971.6,376.2 972.4,376.2 
					973.3,376.2 974.1,376.2 974.9,376.2 975.7,376.2 976.6,376.2 977.5,376.2 978.3,376.2 979.1,376.2 979.9,376.2 980.7,376.2 
					981.5,376.2 982.4,376.2 983.2,376.2 984,376.2 984.8,376.2 985.8,376.2 986.6,376.2 987.4,376.2 988.2,376.2 989,376.2 
					989.8,376.2 990.5,376.2 991.2,376.2 992.1,376.2 992.9,376.2 993.7,376.2 994.5,376.2 995.4,376.2 996.1,376.2 996.9,376.2 
					997.8,376.2 998.6,376.2 999.4,376.2 1000.1,376.2 1001,376.2 1001.8,376.2 1002.6,376.2 1003.5,376.2 1004.2,376.2 1005,376.2 
					1005.8,376.2 1006.6,376.2 1007.4,376.2 1008.2,376.2 1009,376.2 1009.8,376.2 1010.6,376.2 1011.3,376.2 1012.2,376.2 
					1013,376.2 1013.8,376.2 1014.5,376.2 1015.3,376.2 1016.1,376.2 1016.9,376.2 1017.7,376.2 1018.6,376.2 1019.3,376.2 
					1020.1,376.2 1020.9,376.2 1021.6,376.2 1022.5,376.2 1023.4,376.2 1024.2,376.2 1025,376.2 1025.8,376.2 1026.6,376.2 
					1027.4,376.2 1028.2,376.2 1028.9,376.2 1029.8,376.2 1030.6,376.2 1031.4,376.2 1032.3,376.2 1033.1,376.2 1033.9,376.2 
					1034.8,376.2 1035.7,376.2 1036.5,376.2 1037.3,376.2 1038.1,376.2 1039,376.2 1039.7,376.2 1040.6,376.2 1041.5,376.2 
					1041.8,376.7 1042.6,376.7 1043.5,376.7 1044.3,376.7 1045.1,376.7 1045.9,376.7 1046.8,376.7 1047.5,376.7 1048.4,376.7 
					1049.2,376.7 1050.1,376.7 1050.9,376.7 1051.8,376.7 1052.6,376.7 1053.3,376.7 1054,376.7 1055,376.7 1055.8,376.7 
					1056.6,376.7 1057.3,376.7 1058.2,376.7 1059.1,376.7 1059.9,376.7 1060.7,376.7 1061.6,376.7 1062.3,376.7 1063.2,376.7 
					1064,376.7 1064.8,376.7 1065.6,376.8 1066.4,376.8 1067.3,376.8 1068.1,376.8 1069,377 1069.7,377 1070.6,377 1071.3,377 
					1072.1,377 1072.9,377 1073.8,377 1074.5,377 1075.3,377 1076.1,377 1076.9,377 1077.7,377 1078.6,377.1 1079.4,377.1 
					1080.3,377.1 1081.1,377.1 1081.9,377.1 1082.8,377.1 1083.6,377.1 1084.3,377.1 1085.1,377.1 1085.9,377.1 1086.6,377.1 
					1087.4,377.1 1088.3,377.1 1089.1,377.1 1090,377.1 1090.8,377.1 1091.5,377.1 1092.3,377.1 1093,377.1 1093.8,377.1 
					1094.6,377.1 1095.5,377.2 1096.4,377.2 1097.3,377.2 1098,377.2 1098.8,377.2 1099.7,377.2 1100.5,377.2 1101,377.2 
					1101.8,377.2 1102.6,377.2 1103.4,377.2 1104.3,377.2 1105.1,377.2 1105.8,377.2 1106.5,377.2 1107.4,377.2 1108.2,377.2 
					1109,377.2 1109.9,377.2 1110.8,377.2 1111.7,377.2 1112.4,377.2 1113.3,377.2 1114.1,377.2 1115,377.2 1116,377.2 
					1116.7,377.2 1117.6,377.2 1118.5,377.2 1119.2,377.2 1120.1,377.2 1121,377.2 1121.8,377.2 1122.6,377.2 1123.4,377.2 
					1124.2,377.2 1125.1,377.2 1125.9,377.2 1126.8,377.2 1127.6,377.2 1128.5,377.2 1129.4,377.2 1130.2,377.2 1131,377.2 
					1131.8,377.2 1132.6,377.2 1133.5,377.2 1134.3,377.2 1135.1,377.2 1136,377.2 1136.9,377.2 1137.7,377.2 1138.5,377.2 
					1139.4,377.2 1140.2,377.2 1141,377.2 1141.8,377.2 1142.6,377.2 1143.4,377.2 1144.2,377.2 1145,377.2 1145.8,377.2 
					1146.7,377.2 1147.6,377.2 1148.4,377.2 1149.2,377.2 1150,377.2 1150.8,377.2 1151.5,377.2 1152.4,377.2 1153.1,377.2 
					1153.9,377.2 1154.6,377.2 1155.5,377.2 1156.3,377.2 1157.2,377.2 1157.9,377.2 1158.7,377.2 1159.5,377.2 1160.3,377.2 
					1161.2,377.2 1162,377.2 1162.8,377.2 1163.6,377.2 1164.5,377.2 1165.2,377.2 1166.1,377.2 1166.9,377.2 1167.7,377.2 
					1168.5,377.2 1169.3,377.2 1170.1,377.2 1171,377.2 1171.8,377.2 1172.6,377.2 1173.4,377.2 1174.3,377.2 1175.1,377.2 
					1176,377.2 1177,377.2 1177.8,377.2 1178.3,377.2 1178.9,377.2 1179.8,377.2 1180.8,377.2 1181.6,377.2 1182.5,377.2 
					1183.3,377.2 1184.1,377.2 1184.9,377.2 1185.8,377.2 1186.6,377.2 1187.3,377.2 1188.1,377.2 1188.9,377.2 1189.8,377.2 				
					"/>
			</g>
		</g>
	</g>
</g>
<g>
	<defs>
		<rect id="SVGID_89_" x="72" y="72" width="583.3" height="413.3"/>
	</defs>
	<clipPath id="SVGID_90_">
		<use xlink:href="#SVGID_89_"  overflow="visible"/>
	</clipPath>
	<g clip-path="url(#SVGID_90_)" enable-background="new    ">
		<g>
			<defs>
				<rect id="SVGID_91_" x="143" y="75" width="8" height="5"/>
			</defs>
			<clipPath id="SVGID_92_">
				<use xlink:href="#SVGID_91_"  overflow="visible"/>
			</clipPath>
			<g clip-path="url(#SVGID_92_)">
				<defs>
					<rect id="SVGID_93_" x="143" y="74" width="8" height="8"/>
				</defs>
				<clipPath id="SVGID_94_">
					<use xlink:href="#SVGID_93_"  overflow="visible"/>
				</clipPath>
				<line clip-path="url(#SVGID_94_)" fill="none" stroke="#51A7F9" x1="143" y1="77.5" x2="151" y2="77.5"/>
			</g>
		</g>
	</g>
	<g clip-path="url(#SVGID_90_)">
		<text transform="matrix(1 0 0 1 156.7968 81.7002)"><tspan x="0" y="0" font-family="'Helvetica'" font-size="10">Genetic</tspan><tspan x="34.5" y="0" font-family="'Helvetica'" font-size="10"> </tspan><tspan x="36.7" y="0" font-family="'Helvetica'" font-size="10">Algorithms time</tspan></text>
	</g>
</g>
<g>
	<defs>
		<rect id="SVGID_95_" x="72" y="72" width="583.3" height="413.3"/>
	</defs>
	<clipPath id="SVGID_96_">
		<use xlink:href="#SVGID_95_"  overflow="visible"/>
	</clipPath>
	<g clip-path="url(#SVGID_96_)" enable-background="new    ">
		<g>
			<defs>
				<rect id="SVGID_97_" x="304" y="75" width="8" height="5"/>
			</defs>
			<clipPath id="SVGID_98_">
				<use xlink:href="#SVGID_97_"  overflow="visible"/>
			</clipPath>
			<g clip-path="url(#SVGID_98_)">
				<defs>
					<rect id="SVGID_99_" x="304" y="74" width="8" height="8"/>
				</defs>
				<clipPath id="SVGID_100_">
					<use xlink:href="#SVGID_99_"  overflow="visible"/>
				</clipPath>
				<line clip-path="url(#SVGID_100_)" fill="none" stroke="#70BF41" x1="304" y1="77.5" x2="312" y2="77.5"/>
			</g>
		</g>
	</g>
	<g clip-path="url(#SVGID_96_)">
		<text transform="matrix(1 0 0 1 318.1714 81.7002)"><tspan x="0" y="0" font-family="'Helvetica'" font-size="10" letter-spacing="-1">T</tspan><tspan x="5" y="0" font-family="'Helvetica'" font-size="10">abu Search time</tspan></text>
	</g>
</g>
<g>
	<defs>
		<rect id="SVGID_101_" x="72" y="72" width="583.3" height="413.3"/>
	</defs>
	<clipPath id="SVGID_102_">
		<use xlink:href="#SVGID_101_"  overflow="visible"/>
	</clipPath>
	<g clip-path="url(#SVGID_102_)" enable-background="new    ">
		<g>
			<defs>
				<rect id="SVGID_103_" x="484" y="75" width="8" height="5"/>
			</defs>
			<clipPath id="SVGID_104_">
				<use xlink:href="#SVGID_103_"  overflow="visible"/>
			</clipPath>
			<g clip-path="url(#SVGID_104_)">
				<defs>
					<rect id="SVGID_105_" x="484" y="74" width="8" height="8"/>
				</defs>
				<clipPath id="SVGID_106_">
					<use xlink:href="#SVGID_105_"  overflow="visible"/>
				</clipPath>
				<line clip-path="url(#SVGID_106_)" fill="none" stroke="#FBE12B" x1="484" y1="77.5" x2="492" y2="77.5"/>
			</g>
		</g>
	</g>
	<g clip-path="url(#SVGID_102_)">
		<text transform="matrix(1 0 0 1 497.8662 81.7002)"><tspan x="0" y="0" font-family="'Helvetica'" font-size="10">Simulated</tspan><tspan x="44.5" y="0" font-family="'Helvetica'" font-size="10"> </tspan><tspan x="46.7" y="0" font-family="'Helvetica'" font-size="10">Annealing time</tspan></text>
	</g>
</g>
<g>
	<defs>
		<rect id="SVGID_107_" x="72" y="72" width="583.3" height="413.3"/>
	</defs>
	<clipPath id="SVGID_108_">
		<use xlink:href="#SVGID_107_"  overflow="visible"/>
	</clipPath>
	<g clip-path="url(#SVGID_108_)" enable-background="new    ">
		<g>
			<defs>
				<rect id="SVGID_109_" x="143" y="87" width="8" height="5"/>
			</defs>
			<clipPath id="SVGID_110_">
				<use xlink:href="#SVGID_109_"  overflow="visible"/>
			</clipPath>
			<g clip-path="url(#SVGID_110_)">
				<defs>
					<rect id="SVGID_111_" x="143" y="86" width="8" height="8"/>
				</defs>
				<clipPath id="SVGID_112_">
					<use xlink:href="#SVGID_111_"  overflow="visible"/>
				</clipPath>
				<line clip-path="url(#SVGID_112_)" fill="none" stroke="#EF951A" x1="143" y1="89.5" x2="151" y2="89.5"/>
			</g>
		</g>
	</g>
	<g clip-path="url(#SVGID_108_)">
		<text transform="matrix(1 0 0 1 156.7968 93.7002)" font-family="'Helvetica'" font-size="10">Ant Colony Optimization time</text>
	</g>
</g>
<g>
	<defs>
		<rect id="SVGID_113_" x="72" y="72" width="583.3" height="413.3"/>
	</defs>
	<clipPath id="SVGID_114_">
		<use xlink:href="#SVGID_113_"  overflow="visible"/>
	</clipPath>
	<g clip-path="url(#SVGID_114_)" enable-background="new    ">
		<g>
			<defs>
				<rect id="SVGID_115_" x="304" y="87" width="8" height="5"/>
			</defs>
			<clipPath id="SVGID_116_">
				<use xlink:href="#SVGID_115_"  overflow="visible"/>
			</clipPath>
			<g clip-path="url(#SVGID_116_)">
				<defs>
					<rect id="SVGID_117_" x="304" y="86" width="8" height="8"/>
				</defs>
				<clipPath id="SVGID_118_">
					<use xlink:href="#SVGID_117_"  overflow="visible"/>
				</clipPath>
				<line clip-path="url(#SVGID_118_)" fill="none" stroke="#FB4912" x1="304" y1="89.5" x2="312" y2="89.5"/>
			</g>
		</g>
	</g>
	<g clip-path="url(#SVGID_114_)">
		<text transform="matrix(1 0 0 1 318.1714 93.7002)" font-family="'Helvetica'" font-size="10">Particle Swarm Optimization time</text>
	</g>
</g>
</svg>
